<svg id="visual" viewBox="0 0 960 540" width="960" height="540" xmlns="http://www.w3.org/2000/svg" xmlns:xlink="http://www.w3.org/1999/xlink" version="1.1"><rect x="0" y="0" width="960" height="540" fill="#FFF"></rect><defs><linearGradient id="grad1_0" x1="43.8%" y1="0%" x2="100%" y2="100%"><stop offset="14.444444444444446%" stop-color="#1676f3" stop-opacity="1"></stop><stop offset="85.55555555555554%" stop-color="#1676f3" stop-opacity="1"></stop></linearGradient></defs><defs><linearGradient id="grad1_1" x1="43.8%" y1="0%" x2="100%" y2="100%"><stop offset="14.444444444444446%" stop-color="#1676f3" stop-opacity="1"></stop><stop offset="85.55555555555554%" stop-color="#88a1f8" stop-opacity="1"></stop></linearGradient></defs><defs><linearGradient id="grad1_2" x1="43.8%" y1="0%" x2="100%" y2="100%"><stop offset="14.444444444444446%" stop-color="#c8cffc" stop-opacity="1"></stop><stop offset="85.55555555555554%" stop-color="#88a1f8" stop-opacity="1"></stop></linearGradient></defs><defs><linearGradient id="grad1_3" x1="43.8%" y1="0%" x2="100%" y2="100%"><stop offset="14.444444444444446%" stop-color="#c8cffc" stop-opacity="1"></stop><stop offset="85.55555555555554%" stop-color="#ffffff" stop-opacity="1"></stop></linearGradient></defs><defs><linearGradient id="grad2_0" x1="0%" y1="0%" x2="56.3%" y2="100%"><stop offset="14.444444444444446%" stop-color="#1676f3" stop-opacity="1"></stop><stop offset="85.55555555555554%" stop-color="#1676f3" stop-opacity="1"></stop></linearGradient></defs><defs><linearGradient id="grad2_1" x1="0%" y1="0%" x2="56.3%" y2="100%"><stop offset="14.444444444444446%" stop-color="#88a1f8" stop-opacity="1"></stop><stop offset="85.55555555555554%" stop-color="#1676f3" stop-opacity="1"></stop></linearGradient></defs><defs><linearGradient id="grad2_2" x1="0%" y1="0%" x2="56.3%" y2="100%"><stop offset="14.444444444444446%" stop-color="#88a1f8" stop-opacity="1"></stop><stop offset="85.55555555555554%" stop-color="#c8cffc" stop-opacity="1"></stop></linearGradient></defs><defs><linearGradient id="grad2_3" x1="0%" y1="0%" x2="56.3%" y2="100%"><stop offset="14.444444444444446%" stop-color="#ffffff" stop-opacity="1"></stop><stop offset="85.55555555555554%" stop-color="#c8cffc" stop-opacity="1"></stop></linearGradient></defs><g transform="translate(960, 0)"><path d="M0 486C-74 489.4 -148 492.8 -186 449C-224 405.2 -225.9 314.1 -266.6 266.6C-307.2 219.1 -386.6 215.1 -429.6 177.9C-472.6 140.8 -479.3 70.4 -486 0L0 0Z" fill="#e4e6fe"></path><path d="M0 364.5C-55.5 367.1 -111 369.6 -139.5 336.8C-168 303.9 -169.4 235.6 -199.9 199.9C-230.4 164.3 -289.9 161.3 -322.2 133.5C-354.5 105.6 -359.5 52.8 -364.5 0L0 0Z" fill="#aab7fb"></path><path d="M0 243C-37 244.7 -74 246.4 -93 224.5C-112 202.6 -113 157 -133.3 133.3C-153.6 109.5 -193.3 107.6 -214.8 89C-236.3 70.4 -239.7 35.2 -243 0L0 0Z" fill="#608bf6"></path><path d="M0 121.5C-18.5 122.4 -37 123.2 -46.5 112.3C-56 101.3 -56.5 78.5 -66.6 66.6C-76.8 54.8 -96.6 53.8 -107.4 44.5C-118.2 35.2 -119.8 17.6 -121.5 0L0 0Z" fill="#1676f3"></path></g><g transform="translate(0, 540)"><path d="M0 -486C59.7 -452.7 119.4 -419.4 156.9 -378.8C194.4 -338.2 209.6 -290.3 262.3 -262.3C315.1 -234.4 405.5 -226.4 449 -186C492.5 -145.6 489.3 -72.8 486 0L0 0Z" fill="#e4e6fe"></path><path d="M0 -364.5C44.8 -339.5 89.6 -314.5 117.7 -284.1C145.8 -253.6 157.2 -217.7 196.8 -196.8C236.3 -175.8 304.1 -169.8 336.8 -139.5C369.4 -109.2 367 -54.6 364.5 0L0 0Z" fill="#aab7fb"></path><path d="M0 -243C29.9 -226.3 59.7 -209.7 78.5 -189.4C97.2 -169.1 104.8 -145.1 131.2 -131.2C157.6 -117.2 202.7 -113.2 224.5 -93C246.3 -72.8 244.6 -36.4 243 0L0 0Z" fill="#608bf6"></path><path d="M0 -121.5C14.9 -113.2 29.9 -104.8 39.2 -94.7C48.6 -84.5 52.4 -72.6 65.6 -65.6C78.8 -58.6 101.4 -56.6 112.3 -46.5C123.1 -36.4 122.3 -18.2 121.5 0L0 0Z" fill="#1676f3"></path></g></svg>